<svg xmlns="http://www.w3.org/2000/svg" width="23" height="25" fill="none" viewBox="0 0 23 25">
    <path fill="#fff" d="M18.893 8.711c-.196-.563-.568-1.052-1.063-1.4-.494-.346-1.087-.533-1.696-.534H13.79V0l-.984.137c-2.231.311-3.97 1.419-5.166 3.288C6.776 4.773 6.376 6.26 6.19 7.372c-1.285.966-2.401 2.297-3.325 3.962-.778 1.403-1.423 3.046-1.916 4.886C.117 19.328.005 21.907 0 22.015v2.984h1.724v-2.932c.021-.433.564-9.924 5.765-13.538l.304-.211.05-.363c.26-1.877 1.157-4.977 4.222-5.93v6.438h4.068c.52 0 .963.326 1.125.781l.002.008c.688 1.984 1.868 4.467 3.708 5.634l-.553 2.03c-.19.707-.613 1.333-1.204 1.78-.591.447-1.317.69-2.064.69h-.106.005c-1.545-.046-3.151.151-4.777.585l-.636.17V25h1.724v-3.559c1.196-.28 2.425-.405 3.655-.37h-.018l.141.003c1.122 0 2.213-.361 3.105-1.027.892-.667 1.536-1.601 1.832-2.66l.008-.035.92-3.377-.685-.287c-1.282-.538-2.497-2.305-3.423-4.975l.001-.002z"/>
</svg>
