<svg xmlns="http://www.w3.org/2000/svg" width="23" height="23" fill="none" viewBox="0 0 23 23">
    <path fill="#01BFA5" d="M13.8 5.75V2.3c0-.633-.518-1.15-1.15-1.15h-2.3c-.633 0-1.15.517-1.15 1.15v3.45c0 .632.517 1.15 1.15 1.15h2.3c.632 0 1.15-.518 1.15-1.15zM11.5 2.3c.632 0 1.15.517 1.15 1.15 0 .632-.518 1.15-1.15 1.15-.633 0-1.15-.518-1.15-1.15 0-.633.517-1.15 1.15-1.15zm9.2 14.95v-9.2c0-1.265-1.035-2.3-2.3-2.3h-3.45v.38c0 1.057-.863 1.92-1.92 1.92H9.97c-1.058 0-1.92-.863-1.92-1.92v-.38H4.6c-1.265 0-2.3 1.035-2.3 2.3v9.2c0 1.265 1.035 2.3 2.3 2.3h13.8c1.265 0 2.3-1.035 2.3-2.3zm-1.15-6.9v6.9H3.45v-6.9h16.1zm-9.2 2.3c0-.633-.253-1.15-.575-1.15-.322 0-.575.517-.575 1.15 0 .632.253 1.15.575 1.15.322 0 .575-.518.575-1.15zm3.45 0c0-.633-.253-1.15-.575-1.15-.322 0-.575.517-.575 1.15 0 .632.253 1.15.575 1.15.322 0 .575-.518.575-1.15zM6.946 14.04c1.058.552 2.69.909 4.554.909 1.863 0 3.496-.357 4.554-.909-.242 1.15-2.174 2.059-4.554 2.059-2.38 0-4.313-.909-4.554-2.059z"/>
</svg>
