<svg xmlns="http://www.w3.org/2000/svg" width="15" height="23" fill="none" viewBox="0 0 15 23">
    <path fill="#fff" d="M7.5 0c1.99 0 3.897.808 5.303 2.246C14.21 3.683 15 5.633 15 7.666c0 3.796-2.7 6.952-6.25 7.565v2.658h2.5v2.555h-2.5V23h-2.5v-2.556h-2.5V17.89h2.5V15.23C2.7 14.618 0 11.461 0 7.667c0-2.034.79-3.984 2.197-5.421C3.603.808 5.51 0 7.5 0zm0 2.556c-1.326 0-2.598.538-3.536 1.497C3.027 5.01 2.5 6.31 2.5 7.667c0 1.355.527 2.655 1.464 3.614.938.958 2.21 1.497 3.536 1.497s2.598-.539 3.536-1.497c.937-.959 1.464-2.259 1.464-3.614 0-1.356-.527-2.656-1.464-3.614-.938-.959-2.21-1.497-3.536-1.497z"/>
</svg>
