<svg xmlns="http://www.w3.org/2000/svg" width="23" height="23" fill="none" viewBox="0 0 23 23">
    <g clip-path="url(#clip0)">
        <path fill="#01BFA5" d="M9.593.083c-1.427 0-2.433 1.01-2.433 2.433 0 1.566 1.237 2.584 2.433 3.566.39.32.773.644 1.133.995H4.423c-1.164 0-2.131.753-2.488 1.797 0 0 .18 1.742 2.93 1.742 2.557 0 2.652-1.3 2.654-1.355.006-.113.055-.219.138-.296.082-.078.192-.12.305-.119.116.004.226.052.308.134.082.082.13.192.134.309.003.045.128 1.327 3.096 1.327s3.092-1.3 3.096-1.355c.01-.116.064-.224.152-.302.087-.077.201-.117.318-.113.113.005.22.054.298.137.077.082.12.192.117.306.002.046.08 1.327 2.654 1.327 2.833 0 2.93-1.742 2.93-1.742-.357-1.043-1.326-1.797-2.488-1.797h-6.303c.36-.351.741-.674 1.133-.995C14.602 5.1 15.84 4.08 15.84 2.516c0-1.423-1.005-2.433-2.433-2.433-.822 0-1.519.59-1.907.995-.387-.406-1.085-.995-1.907-.995zM7.988 10.367c-.432.563-1.316 1.133-3.123 1.133-1.773 0-2.654-.553-3.096-1.106v3.76h19.462v-3.76c-.442.549-1.325 1.106-3.096 1.106-1.814 0-2.693-.572-3.124-1.133-.49.56-1.49 1.133-3.511 1.133-2.028 0-3.024-.57-3.511-1.133zm-5.334 4.672c-1.164 0-2.131.752-2.489 1.796.001 0 .18 1.742 2.931 1.742 2.557 0 3.536-1.3 3.539-1.354.006-.113.055-.22.137-.297.083-.077.192-.12.305-.118.116.004.226.051.309.134.082.082.13.192.133.308.004.045 1.013 1.327 3.981 1.327s3.976-1.3 3.98-1.354c.01-.117.065-.225.152-.302.088-.077.202-.118.319-.113.113.005.22.054.297.136.078.083.12.193.117.306.002.047.965 1.327 3.539 1.327 2.833 0 2.93-1.742 2.93-1.742-.357-1.043-1.325-1.796-2.488-1.796H2.654zm4.45 3.29c-.432.562-2.201 1.133-4.008 1.133-1.774 0-2.655-.553-3.096-1.106v2.875C0 22.696 1.189 23 2.654 23h17.692C21.811 23 23 22.695 23 21.23v-2.875c-.441.548-1.325 1.106-3.096 1.106-1.814 0-3.578-.573-4.008-1.134-.49.56-2.375 1.134-4.396 1.134-2.028 0-3.908-.57-4.396-1.134z"/>
    </g>
    <defs>
        <clipPath id="clip0">
            <path fill="#fff" d="M0 0H23V23H0z"/>
        </clipPath>
    </defs>
</svg>
