<svg xmlns="http://www.w3.org/2000/svg" width="46" height="46" fill="none" viewBox="0 0 46 46">
    <path fill="#AF773F" d="M8.126 10.428c-1.432-4.867-.33-7.39 2.588-3.389 2.918 4.002 1.58 8.806-.352 10.214l-2.236-6.825zM13.018 24.4c.075 5.095-.552 9.214-1.212 13.034-.413-.103-.822-.16-1.128-.16-.813 0-1.165 1.008-1.165 1.008-.435.597.007 1.437.746 1.437h2.463c.367 0 .66-.207.81-.489l.044.008s2.015-4.353 2.53-7.327l1.305-7.538-4.393.027zm26.174-2.782l-7.76-1.983c-3.875 3.346-.183 10.975 1.29 13.004 1.391 1.915 1.22 4.088.91 5.42-.365-.082-.718-.127-.991-.127-.813 0-1.165 1.007-1.165 1.007-.434.598.007 1.437.746 1.437h2.464c.127.001.253-.025.37-.077.117-.051.221-.127.306-.222.148-.119.25-.334.275-.684.136-1.86 1.636-3.343 1.117-4.954-1.609-4.994 2.034-7.302 2.438-12.822z"/>
    <path fill="#D19B61" d="M42.171 12.346c-.18-.67-.514-1.296-1.008-1.816-.252-.265-.544-.488-.865-.662-.325-.176-.685-.297-1.046-.347-.345-.047-.696-.037-1.038.03-.323.065-.612.175-.868.3-.065.031-.125.066-.186.098-.06.035-.118.07-.174.105l-.183.122-.156.123c-.075.058-.124.107-.178.159-.053.053-.104.105-.15.162-.096.11-.178.228-.251.347-.289.478-.397 1.016-.322 1.494.035.238.116.458.224.639.096.163.221.308.368.428.13.104.253.176.362.222.109.049.202.079.276.098.074.022.132.028.17.035l.057.01c.094.015.19-.002.273-.048.083-.046.149-.118.186-.206.037-.087.043-.185.018-.277-.025-.091-.08-.172-.156-.229l-.063-.046-.03-.022c-.019-.014-.048-.035-.08-.063-.067-.054-.151-.145-.199-.253-.049-.108-.052-.226-.013-.36.02-.067.056-.14.103-.215.048-.073.115-.146.19-.211.04-.032.081-.063.127-.09l.068-.037c.023-.01.05-.027.061-.026l.01-.003.005-.001.016-.007.07-.034.018-.008c.007-.004-.044.027-.02.013l.003-.001.006-.003.028-.01.054-.022c.072-.026.144-.049.217-.07.143-.037.282-.058.408-.055.127-.001.24.02.343.057.101.04.196.09.287.162.091.072.177.166.26.275.162.222.285.522.34.827.051.306.035.614-.045.843-.018.055-.04.108-.065.16l-.029.054-.004.01-.024.038-.024.039-.003.005.013-.022-.005.007-.01.014c-.098.145-.205.286-.318.421-.114.13-.231.257-.355.374-.125.115-.25.226-.381.326-.25.193-.514.364-.792.512-.129.07-.26.134-.394.192-.798-.49-1.69-.734-2.563-.739-2.576-.013-4.475 1.295-9.197 1.271-3.408-.017-6.497-.508-8.405-1.73-.13-.109-.268-.206-.415-.29-.025-.02-.051-.038-.077-.057-.288-.254-.652-1.012-1.202-1.88.252-1.604.211-3.563-.322-5.012-1.656-4.5-4.832-3.447-4.555 1.578-3.9-.374-6.17 1.81-6.543 5.112-.05.442-.043.89.022 1.33.118.801-1.068 1.48-1.156 2.284l-.004.032c-.143 1.44 2.676 2.54 3.708 2.657 1.859.21 3.637-1.5 4.101.055.403 3.017 2.478 7.517 5.42 9.167 1.15 3.806 1.941 5.579 1.233 8.405-.4-.096-.79-.149-1.085-.149-.813 0-1.165 1.007-1.165 1.007-.435.598.007 1.437.746 1.437H18.3c.549 0 .934-.463.917-.946h.068s.912-3.24.912-5.352c0-.96.068-2.587.143-4.075 4.137-.922 5.452-2.007 7.556-2.574 1.265-.341 2.607.12 3.419 1.148 1.199 1.519 2.704 2.7 4.286 3.178 2.517.76 3.35 3.855 3.608 5.355.03.176.075.35.133.518-.275-.062-.536-.095-.743-.095-.719 0-1.03 1.008-1.03 1.008-.384.597.007 1.437.66 1.437h2.178c.351 0 .625-.245.745-.563.106-.08.17-.265.17-.6 0-9.541-2.696-6.818-1.56-14.256.043-.229.212-1.27.268-1.564 0 0-.003-.874 0-1.334.008-1.618-.359-2.923-.953-3.927.288-.119.566-.26.831-.424.227-.14.455-.3.67-.483.11-.092.218-.188.322-.287.104-.101.204-.21.303-.32.098-.113.193-.229.284-.348.091-.122.177-.248.257-.377l.046-.072.023-.04.023-.039.039-.07c.049-.09.094-.182.135-.275.078-.174.136-.354.183-.534.186-.725.16-1.454-.023-2.124z"/>
    <path fill="#EADFD6" d="M7.062 19.222c.17.39-.013.845-.406 1.009-.618.257-1.527.545-2.316.456-1.5-.169-2.897-.896-3.14-2.503-.241-1.607-.808-3.424 2.548-3.046 1.776.2 2.737 2.75 3.314 4.084z"/>
    <path fill="#AF773F" d="M10.573 13.532c-.291.921.17 1.487-.082 2.455-.01.042-.022.085-.035.127-.321 1.015-1.405 1.579-2.42 1.258-1.016-.321-1.579-1.405-1.258-2.42.215-.681.297-.522.44-1.1.134-.542.054-.736.29-1.288.268-.847 1.17-1.316 2.017-1.048.846.267 1.316 1.17 1.048 2.016zm-5.976 5.55c.017.002.035 0 .053-.005.017-.005.033-.013.047-.024.014-.011.025-.025.034-.04.009-.016.014-.033.016-.051.002-.018 0-.036-.004-.053-.005-.017-.013-.033-.025-.047-.01-.014-.024-.026-.04-.034-.016-.01-.033-.015-.05-.017-.037-.004-.073.007-.1.03-.03.022-.047.054-.051.09-.004.036.006.072.028.1.023.029.056.047.092.05zm-.145-1.527c.018.002.036 0 .053-.005s.033-.013.047-.024c.014-.011.026-.025.035-.04.008-.017.014-.034.016-.052.002-.017 0-.035-.005-.053-.005-.017-.013-.033-.024-.047-.011-.014-.025-.025-.04-.034-.016-.009-.033-.014-.051-.016-.036-.004-.072.006-.1.029-.029.022-.047.055-.05.09-.005.037.006.073.028.101.023.028.055.046.091.05zm-.937.871c.018.002.036 0 .053-.004.018-.005.034-.014.048-.025.014-.01.025-.025.034-.04.009-.016.014-.033.016-.05.002-.019 0-.037-.004-.054-.005-.017-.014-.033-.025-.047-.011-.014-.025-.026-.04-.034-.016-.009-.033-.015-.051-.017-.036-.004-.072.007-.1.03-.028.022-.047.055-.05.09-.005.036.006.072.028.1.023.029.056.047.091.051z"/>
    <path fill="#2B3B47" d="M1.441 15.117l.83.115c.416.041.833.073.833.073.118.01.232.054.325.128.093.075.16.176.195.29.035.114.034.235-.001.35-.036.113-.105.213-.199.287l-.482.375s-.115.09-.279.141c-.08.017-.178.066-.276.056-.098-.004-.206.019-.308-.006l-.301-.071c-.095-.036-.181-.086-.256-.12-.45-.136-.59-1.675-.08-1.617zm7.552-1.457c-.1-.011-.2-.003-.297.025-.097.028-.187.075-.266.137-.079.063-.144.14-.193.229-.048.088-.08.184-.09.284l-.128 1.133c-.012.1-.003.201.025.298.028.097.074.187.137.266.063.078.14.144.228.192.088.05.185.08.285.091.1.011.201.003.298-.025.096-.028.187-.074.265-.137.079-.063.144-.14.193-.228.049-.088.08-.185.09-.285l.129-1.133c.01-.1.002-.201-.025-.298-.028-.096-.075-.187-.138-.265-.062-.079-.14-.145-.228-.193-.088-.049-.185-.08-.285-.09z"/>
    <path fill="#FF9DDD" d="M11.2 8.57c-.012-2.056.786-3.267 1.391-1.354.272.86.381 1.76.224 2.587-.143.757-1.2.737-1.353.071-.086-.374-.26-.774-.263-1.305z"/>
</svg>
