<svg xmlns="http://www.w3.org/2000/svg" width="23" height="23" fill="none" viewBox="0 0 23 23">
    <g clip-path="url(#clip0)">
        <path fill="#fff" d="M0 0H25V25H0z"/>
        <path fill="#01BFA5" d="M1.22 11.49l2.999 9.269c.193.357.468.664.827.918.358.255.758.39 1.2.403.386-.014.772-.155 1.158-.423.386-.269.648-.568.786-.898l2.998-9.27c.317-.798.383-1.438.197-1.92-.186-.481-.527-.722-1.024-.722H2.047c-.496 0-.838.241-1.024.723-.186.481-.12 1.121.197 1.92zm5.088 10.59h-.125.125zm3.867-17.196c0-1.101-.39-2.037-1.169-2.808C8.227 1.306 7.29.92 6.194.92c-1.096 0-2.03.385-2.803 1.156-.772.77-1.158 1.707-1.158 2.808 0 1.1.386 2.036 1.158 2.807.773.77 1.707 1.156 2.803 1.156 1.096 0 2.033-.385 2.812-1.156.78-.77 1.169-1.706 1.169-2.807zm2.461 17.196h8.335c.482 0 .817-.24 1.003-.723.186-.481.127-1.121-.176-1.92L18.158 8.6c.772-.289 1.403-.77 1.892-1.445.49-.674.735-1.43.735-2.27 0-1.101-.39-2.037-1.169-2.808C18.837 1.306 17.9.92 16.803.92c-1.096 0-2.033.385-2.812 1.156-.78.77-1.169 1.707-1.169 2.808 0 .853.252 1.62.755 2.301.503.682 1.148 1.16 1.934 1.435l-3.702 10.818c-.317.798-.38 1.438-.186 1.92.193.481.53.722 1.013.722z"/>
    </g>
    <defs>
        <clipPath id="clip0">
            <path fill="#fff" d="M0 0H23V23H0z"/>
        </clipPath>
    </defs>
</svg>
