<svg xmlns="http://www.w3.org/2000/svg" width="662" height="416" fill="none" viewBox="0 0 662 416">
    <path fill="#E0FBF6" fill-rule="evenodd" d="M367.971.276c61.15-4.339 103.65 43.482 153.41 70.627 49.887 27.213 121.165 43.175 137.33 87.97 16.123 44.678-30.78 86.929-59.433 127.883-23.695 33.868-50.92 65.381-91.728 88.177-41.131 22.976-88.405 42.014-139.579 41.031-50.507-.971-87.795-31.781-134.506-46.296-67.632-21.016-158.433-12.242-199.966-57.641-42.39-46.336-45.66-118.283-3.448-164.711 41.972-46.164 139.852-28.059 204.147-56.036C287.521 68.078 306.674 4.626 367.971.276z" clip-rule="evenodd"/>
</svg>
