<svg xmlns="http://www.w3.org/2000/svg" width="22" height="22" fill="none" viewBox="0 0 22 22">
    <path fill="#01BFA5" fill-rule="evenodd" d="M22 11c0 2.917-1.159 5.715-3.222 7.778C16.715 20.841 13.918 22 11 22c-2.917 0-5.715-1.159-7.778-3.222C1.159 16.715 0 13.918 0 11c0-2.917 1.159-5.715 3.222-7.778C5.285 1.159 8.082 0 11 0c2.917 0 5.715 1.159 7.778 3.222C20.841 5.285 22 8.082 22 11zm-11.487 3.638c-.129.13-.201.304-.201.487s.072.358.201.487c.13.129.304.201.487.201s.358-.072.487-.201l4.125-4.125c.064-.064.115-.14.15-.223.034-.084.052-.174.052-.264 0-.09-.018-.18-.053-.264-.034-.083-.085-.159-.15-.223l-4.124-4.125c-.064-.064-.14-.114-.224-.149-.083-.035-.173-.052-.263-.052-.09 0-.18.017-.263.052-.084.035-.16.085-.224.15-.064.063-.114.14-.149.223-.035.083-.052.173-.052.263 0 .09.017.18.052.263.035.084.085.16.15.224l2.951 2.95h-6.59c-.182 0-.357.073-.486.202-.13.129-.202.304-.202.486s.073.357.202.486c.129.13.304.201.486.201h6.59l-2.952 2.951z" clip-rule="evenodd"/>
</svg>
