<svg xmlns="http://www.w3.org/2000/svg" width="128" height="193" fill="none" viewBox="0 0 128 193">
    <path fill="#01BFA5" fill-opacity=".15" d="M62.5 192.5c35.25 0 65-19.75 65-53.75 0-24.25-16-39.75-36.75-45.5V92c19.5-7.75 30.75-22.25 30.75-42.25C121.5 18.25 97.25.5 61.5.5 39.75.5 22 9.25 6 23.25l18.75 22.5c11-10.25 21.75-16.25 35-16.25 15.75 0 24.75 8.5 24.75 23 0 16.5-11 28.25-45 28.25V107c40.25 0 51 11.5 51 29.5 0 16.75-12.75 26-31.5 26-16.75 0-30.25-8.25-41.25-19L.5 166.75c13 14.75 32.75 25.75 62 25.75z"/>
</svg>
