<svg xmlns="http://www.w3.org/2000/svg" width="25" height="38" fill="none" viewBox="0 0 25 38">
    <path fill="#FFC7C7" d="M10.235 37.486l-.006-13.642 5.024.002.006 13.642-5.024-.002z"/>
    <path fill="#FFC7C7" d="M5.926 27.303l13.638-.006-.003 5.025-13.637.006.002-5.025zM21.339 3.665c-4.881-4.887-12.797-4.887-17.678 0-4.881 4.888-4.881 12.813 0 17.7 4.881 4.887 12.797 4.887 17.678 0s4.881-12.812 0-17.7zM7.307 17.715c-2.87-2.873-2.87-7.527 0-10.4 2.869-2.872 7.517-2.872 10.386 0 2.87 2.873 2.87 7.527 0 10.4-2.866 2.872-7.517 2.872-10.386 0z"/>
</svg>
