<svg xmlns="http://www.w3.org/2000/svg" width="30" height="24" fill="none" viewBox="0 0 30 24">
    <path fill="#fff" d="M1.212 0C.891 0 .582.126.355.352.128.577 0 .882 0 1.2c0 .318.128.624.355.849.227.225.536.351.857.351h2.691L7.083 15c.27 1.068 1.237 1.8 2.349 1.8h15.115c1.094 0 2.024-.72 2.311-1.764L30 3.6h-2.538l-2.916 10.8H9.43L6.25 1.8c-.13-.517-.433-.975-.859-1.302C4.965.172 4.441-.003 3.903 0h-2.69zM23.03 16.8c-1.994 0-3.636 1.626-3.636 3.6 0 1.974 1.642 3.6 3.636 3.6 1.994 0 3.637-1.626 3.637-3.6 0-1.974-1.643-3.6-3.637-3.6zm-10.909 0c-1.994 0-3.636 1.626-3.636 3.6 0 1.974 1.642 3.6 3.636 3.6 1.994 0 3.637-1.626 3.637-3.6 0-1.974-1.643-3.6-3.637-3.6zM15.758 0v6H12.12l4.849 4.8L21.818 6h-3.636V0h-2.424zM12.12 19.2c.684 0 1.212.523 1.212 1.2 0 .677-.528 1.2-1.212 1.2-.683 0-1.212-.523-1.212-1.2 0-.677.529-1.2 1.212-1.2zm10.91 0c.683 0 1.211.523 1.211 1.2 0 .677-.528 1.2-1.212 1.2-.683 0-1.212-.523-1.212-1.2 0-.677.529-1.2 1.212-1.2z"/>
</svg>
