<svg xmlns="http://www.w3.org/2000/svg" width="23" height="23" fill="none" viewBox="0 0 23 23">
    <path fill="#fff" d="M18.078 5.578l-2.816-4.419c-.208-.326-.485-.594-.808-.781-.323-.187-.682-.288-1.048-.295h-.002L8.05 0C5.291 0 3.174.5 1.81 2.948.54 5.226 0 9.106 0 15.921v.833h1.752L.625 23h1.562l1.128-6.246h.562c1.289 0 2.458-.556 3.317-1.46l-.001.002c.813-.847 1.4-2.003 1.696-3.346l.004-.012 1.314-6.845H8.641l-1.245 6.48c-.38 1.7-1.513 3.514-3.562 3.514H1.537C1.58 9.19 2.073 5.696 3.124 3.81c.882-1.582 2.17-2.144 4.921-2.145l5.338.083c.121.002.24.035.348.097.107.062.2.151.27.26l.001.002 3.185 4.998 4.279.775v.883l-.714 4.134c-.21 1.22-.57 1.835-2.046 2.028l-6.052 1.125-.04 6.949h1.533l.032-5.544 4.73-.88c1.07-.142 1.86-.518 2.416-1.145.474-.537.762-1.224.935-2.225L23 8.918V6.47l-4.922-.892z"/>
</svg>
