<svg xmlns="http://www.w3.org/2000/svg" width="14" height="16" fill="none" viewBox="0 0 14 16">
    <path fill="#01BFA5" fill-rule="evenodd" d="M0 15c0-.265.105-.52.293-.707C.48 14.105.735 14 1 14h12c.265 0 .52.105.707.293.188.187.293.442.293.707 0 .265-.105.52-.293.707-.187.188-.442.293-.707.293H1c-.265 0-.52-.105-.707-.293C.105 15.52 0 15.265 0 15zm3.293-7.707C3.481 7.106 3.735 7 4 7c.265 0 .52.106.707.293L6 8.586V1c0-.265.105-.52.293-.707C6.48.105 6.735 0 7 0c.265 0 .52.105.707.293C7.895.48 8 .735 8 1v7.586l1.293-1.293c.092-.096.203-.172.325-.224.122-.053.253-.08.386-.081.132-.001.264.024.387.074.123.05.235.125.328.219.094.094.168.205.219.328.05.123.075.255.074.387 0 .133-.029.264-.08.386-.053.122-.13.233-.225.325l-3 3C7.519 11.895 7.265 12 7 12c-.265 0-.52-.105-.707-.293l-3-3C3.106 8.519 3 8.265 3 8c0-.265.106-.52.293-.707z" clip-rule="evenodd"/>
</svg>
