<svg xmlns="http://www.w3.org/2000/svg" width="23" height="23" fill="none" viewBox="0 0 23 23">
    <path fill="#fff" d="M7.667 7.667c1.648 0 3.194.524 4.434 1.418l6.529-6.53h-5.852V0H23v10.222h-2.556V4.357l-6.529 6.504c.894 1.278 1.418 2.811 1.418 4.472 0 2.034-.807 3.984-2.245 5.421C11.65 22.192 9.7 23 7.667 23c-2.034 0-3.984-.808-5.421-2.245C.808 19.317 0 17.367 0 15.332c0-2.033.808-3.983 2.246-5.42 1.437-1.439 3.387-2.246 5.42-2.246zm0 2.555c-1.356 0-2.656.539-3.614 1.497-.959.959-1.497 2.259-1.497 3.614 0 1.356.538 2.656 1.497 3.614.958.959 2.258 1.497 3.614 1.497 1.355 0 2.655-.538 3.614-1.497.958-.958 1.497-2.258 1.497-3.614 0-1.355-.539-2.655-1.497-3.614-.959-.958-2.259-1.497-3.614-1.497z"/>
</svg>
