<svg xmlns="http://www.w3.org/2000/svg" width="38" height="39" fill="none" viewBox="0 0 38 39">
    <path fill="#86C3FF" d="M37.964.002v14.067h-5.593V.002h5.593z"/>
    <path fill="#86C3FF" d="M38 5.598H23.945V0H38v5.598z"/>
    <path fill="#86C3FF" d="M34.974 6.956L24.238 17.7l-3.955-3.959L31.018 2.998l3.956 3.959z"/>
    <path fill="#86C3FF" d="M23.766 14.214c-5.436-5.442-14.252-5.442-19.689 0-5.436 5.441-5.436 14.265 0 19.706 5.437 5.442 14.253 5.442 19.69 0 5.436-5.441 5.436-14.265 0-19.706zM8.138 29.856c-3.195-3.198-3.195-8.38 0-11.578 3.195-3.198 8.373-3.198 11.568 0 3.195 3.198 3.195 8.38 0 11.578-3.192 3.198-8.373 3.198-11.568 0z"/>
</svg>
