<svg xmlns="http://www.w3.org/2000/svg" width="23" height="30" fill="none" viewBox="0 0 23 30">
    <path fill="#01BFA5" d="M11.809 2.903c1.017 0 1.992.527 2.71 1.465.72.937 1.123 2.21 1.123 3.535 0 .913-.182 1.763-.517 2.5h2.434c.91 0 1.677.838 1.869 1.95 1.926 10.013 1.964 10.275 1.964 10.55 0 .663-.202 1.3-.561 1.768-.36.469-.847.732-1.355.732H4.142c-.508 0-.996-.263-1.355-.732-.36-.469-.561-1.105-.561-1.768 0-.275.038-.537 1.964-10.55.192-1.112.958-1.95 1.869-1.95h2.434c-.342-.757-.521-1.62-.517-2.5 0-1.326.403-2.598 1.122-3.535.72-.938 1.694-1.465 2.71-1.465zm0 2.5c-.508 0-.996.264-1.355.733-.36.468-.562 1.104-.562 1.767 0 .663.202 1.3.562 1.768.36.469.847.732 1.355.732s.996-.263 1.355-.732c.36-.469.562-1.105.562-1.768s-.202-1.299-.562-1.767c-.36-.47-.847-.733-1.355-.733zm-5.75 7.5v10h1.917v-3.125l.958 1.25v1.875h1.917v-2.5l-1.917-2.5 1.917-2.5v-2.5H8.934v1.875l-.958 1.25v-3.125H6.059zm8.625 0c-1.064 0-1.917 1.113-1.917 2.5v5c0 1.388.853 2.5 1.917 2.5h2.875v-6.25h-1.917v3.75h-.958v-5h2.875v-2.5h-2.875z"/>
</svg>
