<svg xmlns="http://www.w3.org/2000/svg" width="53" height="53" fill="none" viewBox="0 0 53 53">
    <g filter="url(#filter0_d)">
        <circle cx="26.5" cy="24.5" r="22.5" fill="#fff"/>
        <circle cx="26.5" cy="24.5" r="21.5" stroke="#01BFA5" stroke-width="2"/>
    </g>
    <path fill="#01BFA5" stroke="#01BFA5" d="M22.866 24l9.196-7.427s0 0 0 0c.13-.105.24-.235.317-.386.078-.152.121-.32.121-.494 0-.173-.043-.341-.12-.493-.078-.152-.188-.281-.318-.386l-.314.39.315-.39c-.13-.104-.278-.183-.434-.235-.157-.053-.322-.079-.488-.079-.165 0-.33.026-.487.079-.156.052-.304.131-.434.236 0 0 0 0 0 0L19.938 23.12s0 0 0 0c-.13.105-.24.234-.317.385-.078.152-.121.32-.121.494s.043.342.12.494c.078.151.188.28.318.385 0 0 0 0 0 0l10.283 8.307.314-.389-.314.389c.129.104.277.183.433.235.157.053.322.079.488.079.165 0 .33-.026.486-.079 0 0 0 0 0 0l-8.762-9.42z"/>
    <defs>
        <filter id="filter0_d" width="53" height="53" x="0" y="0" color-interpolation-filters="sRGB" filterUnits="userSpaceOnUse">
            <feFlood flood-opacity="0" result="BackgroundImageFix"/>
            <feColorMatrix in="SourceAlpha" values="0 0 0 0 0 0 0 0 0 0 0 0 0 0 0 0 0 0 127 0"/>
            <feOffset dy="2"/>
            <feGaussianBlur stdDeviation="2"/>
            <feColorMatrix values="0 0 0 0 0.658333 0 0 0 0 0.658333 0 0 0 0 0.658333 0 0 0 0.25 0"/>
            <feBlend in2="BackgroundImageFix" result="effect1_dropShadow"/>
            <feBlend in="SourceGraphic" in2="effect1_dropShadow" result="shape"/>
        </filter>
    </defs>
</svg>
