<svg xmlns="http://www.w3.org/2000/svg" width="40" height="40" fill="none" viewBox="0 0 40 40">
    <g clip-path="url(#clip0)">
        <path fill="#F18F26" d="M11.643 24.933s.78 2.534-.374 8.88c-.207 1.14-.511 2.303-.666 3.256-1.952 0-2.057 2.225-1.642 2.225h2.327c1.485 0 3.3-3.705 4.282-8.846.98-5.14-3.927-5.515-3.927-5.515zm14.491 4.113s2.525 1.355 2.431 4.534c-.036 1.257-.276 2.324-.394 3.36-2.036 0-2.043 2.206-1.45 2.206h2.062c1.026 0 3.335-3.509 3.755-8.09.42-4.58-6.404-2.01-6.404-2.01z"/>
        <path fill="#FFCC4E" d="M40 9.386C40 3.916 35.4 1.11 30 1.11c-.294 0-.577.117-.785.326-.209.208-.326.49-.326.785 0 .295.117.578.326.786.208.208.49.326.785.326 2.005 0 7.464 1.037 7.464 6.052 0 3.2-1.742 6.069-4.19 6.646-.182-.08-.383-.115-.565-.213-8.043-4.352-14.952 1.002-16.918-.322-1.946-1.313-.599-3.617-3.138-5.826-.366-2.045-1.192-4.974-1.993-4.974-.61 0-1.405 2.028-1.933 4.062C8.07 7.225 7.212 5.697 6.66 5.697c-.711 0-1.42 2.525-1.771 4.705-1.867 1.275-3.229 3.122-3.229 5.295 0 3 4.5 3.73 6 3.79 1.5.06 3.359 3.958 3.983 5.635 1.38 4.853 2.28 9.666 2.998 12.426-1.832 0-2.004 2.346-1.498 2.346.793 0 2.17-.004 2.473 0 1.534.015 2.25-5.23 2.25-9.833 0-.235-.011-.696-.011-.696s2.144.56 6.709-.231c2.715-.472 5.588.943 6.384 3.514.585 1.893 1.554 3.672 2.075 4.982-1.765 0-1.716 2.264-1.204 2.264.875 0 2.001.015 2.426 0 1.63-.062.714-8.416 1.144-11.22.43-2.803 1.408-6.197-.254-9.774C38.73 16.93 40 12.784 40 9.386z"/>
        <path fill="#292F33" d="M6.66 14.075c.552 0 1-.447 1-1 0-.552-.448-1-1-1s-1 .448-1 1c0 .553.448 1 1 1z"/>
        <path fill="#E75A70" d="M3.316 14.289c-.752.47-.752 1.974-1.128 1.974-.375 0-1.127-.884-1.127-1.974-.002-1.09 3.18-.578 2.255 0z"/>
        <path fill="#FEE7B8" d="M7.308 15.936c-.046.03-.1.04-.158.03-.02-.005-1.72-.269-2.828.161-.143.056-.378-.025-.458-.212-.08-.186.025-.405.168-.46 1.6-.633 3.175-.26 3.26-.243.155.032.217.211.21.413-.005.127-.116.261-.194.311zm-.524 2.6c-.028.004-.055.004-.082-.002-.027-.006-.053-.017-.075-.033-.017-.011-1.479-.923-2.669-.948-.153-.003-.339-.171-.339-.379 0-.207.183-.372.338-.37 1.724.027 3.027.99 3.099 1.041.13.091.115.284.03.471-.055.12-.21.203-.302.22z"/>
        <path fill="#F18F26" d="M8.728 8.757s.413-.044.954.036c.241-.51.65-.985.65-.985s.312.742.429 1.31c.028.133.242.13.358.21 0 0 .042-3.848-.96-4.263.002-.002-.838 1.25-1.431 3.692zM4.888 10.4s.427-.297.982-.638c.24-.693.63-1.481.63-1.481s.342.669.384.9c.234-.127.234-.118.448-.211 0 0-.127-2.54-1.221-2.808 0 0-.813 1.525-1.222 4.238z"/>
        <path fill="#FD9" d="M20.5 26.27c-2.943.634-2.644 3.092-2.644 3.092s2.145.561 6.71-.231c1.166-.195 2.365-.05 3.451.419-1.785-3.386-4.794-3.866-7.516-3.28z"/>
        <path fill="#F18F26" d="M16.318 15.676c.53.751 2.664 2.632 3.05 2.4.376-.226.656-2.284.38-3.007-1.476.398-2.65.73-3.43.607zm7.805 2.988c.692.153 1.674-3.31 1.566-4.581-1.61.019-3.088.284-4.405.597.372 1.2 2.17 3.835 2.839 3.984zm2.919-4.535c.046.803 1.09 2.892 1.427 3.04.342.153 1.873-1.465 2.074-2.29-1.13-.399-2.307-.651-3.501-.75z"/>
    </g>
    <defs>
        <clipPath id="clip0">
            <path fill="#fff" d="M0 10C0 4.477 4.477 0 10 0h20c5.523 0 10 4.477 10 10v20c0 5.523-4.477 10-10 10H10C4.477 40 0 35.523 0 30V10z"/>
        </clipPath>
    </defs>
</svg>
